<?xml version="1.0" encoding="UTF-8"?>
<svg width="15px" height="18px" viewBox="0 0 15 18" version="1.1" xmlns="http://www.w3.org/2000/svg" xmlns:xlink="http://www.w3.org/1999/xlink">
    <!-- Generator: Sketch 55 (78076) - https://sketchapp.com -->
    <title>Stroke 1</title>
    <desc>Created with Sketch.</desc>
    <g id="页面-1" stroke="none" stroke-width="1" fill="none" fill-rule="evenodd" stroke-linecap="round" stroke-linejoin="round">
        <g id="首页" transform="translate(-181.000000, -664.000000)" stroke="#333333" stroke-width="0.711111111">
            <g id="编组" transform="translate(0.000000, 656.000000)">
                <g id="Group-9" transform="translate(170.000000, 9.000000)">
                    <g id="编组-2">
                        <path d="M24.8,6.23107132 C24.8,7.69843297 24.3079696,9.0741319 23.326615,10.5597173 C22.7887696,11.3739137 22.1177846,12.209502 21.1636169,13.2843648 C20.7459952,13.7548126 18.9513679,15.7165422 18.4875959,16.2366359 L18.2110107,16.5468104 L17.947372,16.2255595 C17.8308579,16.083584 17.7115091,15.940004 17.5885645,15.7938147 C17.2323447,15.3702455 16.8669788,14.9489764 16.3875458,14.4057277 C16.4486349,14.4749481 15.4816178,13.3827047 15.2262847,13.090775 C14.3169809,12.0511416 13.7133738,11.3057676 13.2047152,10.5650093 C12.1660041,9.05233679 11.6444444,7.68643508 11.6444444,6.23107132 C11.6444444,2.59317074 14.5889831,-0.355555556 18.2222222,-0.355555556 C21.8554614,-0.355555556 24.8,2.59317074 24.8,6.23107132 Z" id="Stroke-1"></path>
                    </g>
                </g>
            </g>
        </g>
    </g>
</svg>