<?xml version="1.0" encoding="UTF-8"?>
<svg width="20px" height="20px" viewBox="0 0 20 20" version="1.1" xmlns="http://www.w3.org/2000/svg" xmlns:xlink="http://www.w3.org/1999/xlink">
    <!-- Generator: Sketch 55 (78076) - https://sketchapp.com -->
    <title>首页线框</title>
    <desc>Created with Sketch.</desc>
    <g id="页面-1" stroke="none" stroke-width="1" fill="none" fill-rule="evenodd">
        <g id="首页" transform="translate(-55.000000, -663.000000)" fill="#BF2A2F" fill-rule="nonzero">
            <g id="编组" transform="translate(0.000000, 656.000000)">
                <g id="编组-5" transform="translate(50.000000, 6.000000)">
                    <g id="首页线框" transform="translate(5.000000, 1.000000)">
                        <g id="首页线">
                            <path d="M9.99755301,10.4074963 C11.3750096,10.4074963 12.4956661,11.5281435 12.4956661,12.9053539 L12.4956661,18.3902399 L7.49990441,18.3902399 L7.49990441,12.9053307 C7.49990441,11.5281342 8.6200987,10.4074963 9.99755301,10.4074963 M9.99755301,9.68866539 C8.22745446,9.68866539 6.78083896,11.135476 6.78083896,12.905333 L6.78083896,19.1090057 L13.2142903,19.1090057 L13.2142903,12.905333 C13.2142903,11.1354713 11.7676701,9.68866539 9.99757624,9.68866539 L9.99755301,9.68866539 Z" id="形状"></path>
                            <path d="M18.0423808,11.3225923 L17.0040897,11.3225923 L17.0040897,10.6042608 L18.0424063,10.6042608 C18.5856876,10.6042608 18.82396,10.323375 18.9281327,10.087741 C18.9698688,9.99300295 19.1460349,9.48073821 18.4814429,8.78966751 L11.398164,1.42263191 C11.0263422,1.03659789 10.529026,0.823663098 9.9980338,0.823663098 C9.4670393,0.823663098 8.96969983,1.03659789 8.59737866,1.42263191 L1.51361197,8.78985332 C0.849518716,9.48142106 1.0257326,9.99249894 1.06789545,10.0884727 C1.17159403,10.3233935 1.40943702,10.6042794 1.95319441,10.6042794 L2.9914623,10.6042794 L2.9914623,11.3226109 L1.95319441,11.3226109 C0.936722154,11.3226109 0.535474854,10.6623198 0.410410097,10.3783193 C0.194409191,9.88882335 0.234695577,9.08331165 0.995429148,8.29182403 L8.07963714,0.9243239 C8.58833663,0.395967922 9.26949663,0.10493211 9.99804773,0.10493211 C10.726053,0.10493211 11.4072107,0.395967922 11.9159102,0.9243239 L18.9996769,8.29159176 C19.7599343,9.08281925 19.801124,9.88811495 19.5856227,10.3778966 C19.3198525,10.9786724 18.757651,11.3225923 18.0423854,11.3225923 L18.0423808,11.3225923 Z" id="路径"></path>
                            <path d="M16.8416467,10.6191815 L16.8416467,15.7554396 C16.8416467,17.2084307 15.6598212,18.3902631 14.2070786,18.3902631 L5.78849195,18.3902631 C4.33574004,18.3902631 3.15392385,17.2084377 3.15392385,15.7554396 L3.15392385,10.6191815 L2.4354019,10.6191815 L2.4354019,15.7554396 C2.4354019,17.607727 3.93645073,19.1090034 5.78850124,19.1090034 L14.2070647,19.1090034 C16.0591152,19.1090034 17.560164,17.6077177 17.560164,15.7554396 L17.560164,10.6191815 L16.8416676,10.6191815 L16.8416467,10.6191815 Z" id="路径"></path>
                        </g>
                    </g>
                </g>
            </g>
        </g>
    </g>
</svg>