<?xml version="1.0" encoding="UTF-8"?>
<svg width="64px" height="64px" viewBox="0 0 64 64" version="1.1" xmlns="http://www.w3.org/2000/svg" xmlns:xlink="http://www.w3.org/1999/xlink">
    <!-- Generator: Sketch 50 (54983) - http://www.bohemiancoding.com/sketch -->
    <title>职业路径图标/php/选中</title>
    <desc>Created with Sketch.</desc>
    <defs>
        <rect id="path-1" x="5.33333333" y="5.33333333" width="53.3333333" height="53.3333333" rx="26.6666667"></rect>
        <linearGradient x1="50%" y1="100%" x2="50%" y2="0.534119898%" id="linearGradient-3">
            <stop stop-color="#FFFFFF" stop-opacity="0.6" offset="0%"></stop>
            <stop stop-color="#FFFFFF" stop-opacity="0" offset="100%"></stop>
        </linearGradient>
        <rect id="path-4" x="0" y="0" width="53.3333333" height="53.3333333" rx="5.33333333"></rect>
    </defs>
    <g id="职业路径图标/php/选中" stroke="none" stroke-width="1" fill="none" fill-rule="evenodd">
        <mask id="mask-2" fill="white">
            <use xlink:href="#path-1"></use>
        </mask>
        <use id="Rectangle-2" fill-opacity="0.200000018" fill="#8462FA" xlink:href="#path-1"></use>
        <g id="Group-2" mask="url(#mask-2)">
            <g transform="translate(-2.666667, 16.000000)">
                <g id="Rectangle-2" fill="none">
                    <use fill="#8462F9" xlink:href="#path-4"></use>
                    <use fill="url(#linearGradient-3)" xlink:href="#path-4"></use>
                </g>
                <path d="M2.66666667,8 L18.6666667,8 C20.139426,8 21.3333333,9.19390733 21.3333333,10.6666667 C21.3333333,12.139426 20.139426,13.3333333 18.6666667,13.3333333 L2.66666667,13.3333333 C1.19390733,13.3333333 1.80361e-16,12.139426 0,10.6666667 C-1.80361e-16,9.19390733 1.19390733,8 2.66666667,8 Z M4,16 L9.33333333,16 C10.8060927,16 12,17.1939073 12,18.6666667 C12,20.139426 10.8060927,21.3333333 9.33333333,21.3333333 L4,21.3333333 C2.52724067,21.3333333 1.33333333,20.139426 1.33333333,18.6666667 C1.33333333,17.1939073 2.52724067,16 4,16 Z M17.3333333,16 L29.3333333,16 C30.8060927,16 32,17.1939073 32,18.6666667 C32,20.139426 30.8060927,21.3333333 29.3333333,21.3333333 L17.3333333,21.3333333 C15.860574,21.3333333 14.6666667,20.139426 14.6666667,18.6666667 C14.6666667,17.1939073 15.860574,16 17.3333333,16 Z M8,24 L29.3333333,24 C30.8060927,24 32,25.1939073 32,26.6666667 C32,28.139426 30.8060927,29.3333333 29.3333333,29.3333333 L8,29.3333333 C6.52724067,29.3333333 5.33333333,28.139426 5.33333333,26.6666667 C5.33333333,25.1939073 6.52724067,24 8,24 Z M13.3333333,32 L21.3333333,32 C22.8060927,32 24,33.1939073 24,34.6666667 C24,36.139426 22.8060927,37.3333333 21.3333333,37.3333333 L13.3333333,37.3333333 C11.860574,37.3333333 10.6666667,36.139426 10.6666667,34.6666667 C10.6666667,33.1939073 11.860574,32 13.3333333,32 Z" id="Combined-Shape" fill="#FFFFFF" opacity="0.400000006"></path>
                <path d="M47.4285714,25.4782609 C47.4285714,21.7391304 46.6894101,20.5507246 44.1307747,19.5072464 L41.6005686,18.4637681 C40.434968,17.9710145 40.2075338,17.5942029 40.2075338,16.2898551 C40.2075338,15.5942029 40.2928216,15.1594203 40.5486851,14.8115942 C40.7761194,14.4927536 41.1457001,14.2608696 41.7142857,14.2608696 C42.3113006,14.2608696 42.652452,14.4637681 42.8798863,14.7826087 C43.2210377,15.2463768 43.2210377,15.9130435 43.2210377,16.6376812 L47.2579957,16.6376812 C47.2579957,14.5507246 46.8031272,12.8985507 45.6943852,11.8550725 C45.1257996,11.3333333 44.4150675,10.9275362 43.5053305,10.7246377 L43.5053305,8 L39.9232409,8 L39.9232409,10.7826087 C39.1840796,11.0144928 38.5586354,11.3623188 37.9900498,11.8550725 C36.7675906,12.9275362 36.1705757,14.5217391 36.1705757,16.4347826 C36.1705757,19.6521739 37.0234542,20.7536232 39.0703625,21.6231884 L41.6289979,22.6956522 C43.0788913,23.3043478 43.3916134,23.6521739 43.3916134,25.6231884 C43.3916134,26.4637681 43.2778962,27.0144928 42.9936034,27.3623188 C42.7377399,27.7101449 42.3397299,27.884058 41.7142857,27.884058 C41.0888415,27.884058 40.6908316,27.6521739 40.4633973,27.3913043 C40.0938166,26.9565217 40.0369581,26.3478261 40.0369581,25.5072464 L36,25.5072464 C36,27.6231884 36.3411514,29.0724638 37.3361763,30.0869565 C37.9331912,30.6956522 38.8144989,31.1884058 39.9232409,31.4202899 L39.9232409,34.6666667 L43.5053305,34.6666667 L43.5053305,31.3913043 C44.6140725,31.1304348 45.5238095,30.6666667 46.1208244,30.057971 C47.1727079,29.0144928 47.4285714,27.5652174 47.4285714,25.4782609 Z" id="$" fill-opacity="0.400000006" fill="#FFFFFF"></path>
            </g>
        </g>
    </g>
</svg>