<?xml version="1.0" encoding="UTF-8"?>
<svg width="64px" height="64px" viewBox="0 0 64 64" version="1.1" xmlns="http://www.w3.org/2000/svg" xmlns:xlink="http://www.w3.org/1999/xlink">
    <!-- Generator: Sketch 50 (54983) - http://www.bohemiancoding.com/sketch -->
    <title>职业路径图标/java/选中</title>
    <desc>Created with Sketch.</desc>
    <defs>
        <linearGradient x1="50%" y1="100%" x2="50%" y2="0.534119898%" id="linearGradient-1">
            <stop stop-color="#FFFFFF" stop-opacity="0.6" offset="0%"></stop>
            <stop stop-color="#FFFFFF" stop-opacity="0" offset="100%"></stop>
        </linearGradient>
        <rect id="path-2" x="5.33333333" y="5.33333333" width="53.3333333" height="53.3333333" rx="26.6666667"></rect>
        <rect id="path-4" x="0" y="0" width="53.3333333" height="53.3333333" rx="5.33333333"></rect>
    </defs>
    <g id="职业路径图标/java/选中" stroke="none" stroke-width="1" fill="none" fill-rule="evenodd">
        <mask id="mask-3" fill="white">
            <use xlink:href="#path-2"></use>
        </mask>
        <g id="Rectangle-2">
            <use fill-opacity="0.200000018" fill="#FF006E" xlink:href="#path-2"></use>
            <use fill="url(#linearGradient-1)" xlink:href="#path-2"></use>
        </g>
        <g id="Group-2" mask="url(#mask-3)">
            <g transform="translate(13.333333, 16.000000)">
                <g id="Rectangle-2" fill="none">
                    <use fill="#FF006E" xlink:href="#path-4"></use>
                    <use fill="url(#linearGradient-1)" xlink:href="#path-4"></use>
                </g>
                <path d="M29.3333333,9.33333333 L45.3333333,9.33333333 C46.8060927,9.33333333 48,10.5272407 48,12 C48,13.4727593 46.8060927,14.6666667 45.3333333,14.6666667 L29.3333333,14.6666667 C27.860574,14.6666667 26.6666667,13.4727593 26.6666667,12 C26.6666667,10.5272407 27.860574,9.33333333 29.3333333,9.33333333 Z M34.6666667,17.3333333 L40,17.3333333 C41.4727593,17.3333333 42.6666667,18.5272407 42.6666667,20 C42.6666667,21.4727593 41.4727593,22.6666667 40,22.6666667 L34.6666667,22.6666667 C33.1939073,22.6666667 32,21.4727593 32,20 C32,18.5272407 33.1939073,17.3333333 34.6666667,17.3333333 Z M48,17.3333333 L56,17.3333333 C57.4727593,17.3333333 58.6666667,18.5272407 58.6666667,20 C58.6666667,21.4727593 57.4727593,22.6666667 56,22.6666667 L48,22.6666667 C46.5272407,22.6666667 45.3333333,21.4727593 45.3333333,20 C45.3333333,18.5272407 46.5272407,17.3333333 48,17.3333333 Z M30.6666667,25.3333333 L52,25.3333333 C53.4727593,25.3333333 54.6666667,26.5272407 54.6666667,28 C54.6666667,29.4727593 53.4727593,30.6666667 52,30.6666667 L30.6666667,30.6666667 C29.1939073,30.6666667 28,29.4727593 28,28 C28,26.5272407 29.1939073,25.3333333 30.6666667,25.3333333 Z M24,33.3333333 L32,33.3333333 C33.4727593,33.3333333 34.6666667,34.5272407 34.6666667,36 C34.6666667,37.4727593 33.4727593,38.6666667 32,38.6666667 L24,38.6666667 C22.5272407,38.6666667 21.3333333,37.4727593 21.3333333,36 C21.3333333,34.5272407 22.5272407,33.3333333 24,33.3333333 Z" id="Combined-Shape" fill="#FFFFFF" opacity="0.400000006"></path>
                <path d="M22.6666667,30.2265016 L19.0610329,30.2265016 L19.0610329,29.0820724 C18.7511737,29.4635488 18.3849765,29.8450252 17.9624413,30.0797799 C17.5399061,30.3145346 17.0046948,30.4612563 16.5258216,30.4612563 C15.1455399,30.4612563 14.3286385,30.0504356 13.5962441,29.1407611 C13.0046948,28.3778083 12.7511737,27.5268226 12.7511737,25.5607519 L12.7511737,20.6309033 C12.7511737,18.6648326 13.0046948,17.8138469 13.5962441,17.0508941 C14.3286385,16.1412196 15.1455399,15.7303989 16.5258216,15.7303989 C17.0046948,15.7303989 17.5399061,15.8771206 17.9624413,16.1118753 C18.3004695,16.3172856 18.6103286,16.5813847 18.8920188,16.9041724 L18.8920188,15.2022008 C18.8920188,13.5295736 18.1877934,12.7079321 16.6666667,12.7079321 L12.6666667,12.7079321 C11.1455399,12.7079321 10.4413146,13.5295736 10.4413146,15.2022008 L10.4413146,25.6781293 C10.4413146,26.7345254 10.6948357,27.1746905 11.314554,27.8202659 L8.55399061,30.6666667 C7.23004695,29.2874828 6.66666667,28.2017423 6.66666667,25.912884 L6.66666667,14.4979367 C6.66666667,12.6785878 7.20187793,11.563503 8.10328638,10.6831729 C9.00469484,9.7734984 10.2159624,9.33333333 11.7370892,9.33333333 L17.5962441,9.33333333 C19.1173709,9.33333333 20.3286385,9.7734984 21.2300469,10.6831729 C22.1314554,11.563503 22.6666667,12.6785878 22.6666667,14.4979367 L22.6666667,30.2265016 Z M18.8920188,25.5020633 L18.8920188,20.6895919 C18.8920188,19.7212288 18.3849765,19.2517194 17.7089202,19.2517194 C17.0328638,19.2517194 16.5258216,19.7212288 16.5258216,20.6895919 L16.5258216,25.5020633 C16.5258216,26.4704264 17.0328638,26.9399358 17.7089202,26.9399358 C18.3849765,26.9399358 18.8920188,26.4704264 18.8920188,25.5020633 Z" id="@" fill-opacity="0.599999964" fill="#FFFFFF"></path>
            </g>
        </g>
    </g>
</svg>