<?xml version="1.0" encoding="UTF-8"?>
<svg width="64px" height="64px" viewBox="0 0 64 64" version="1.1" xmlns="http://www.w3.org/2000/svg" xmlns:xlink="http://www.w3.org/1999/xlink">
    <!-- Generator: Sketch 50 (54983) - http://www.bohemiancoding.com/sketch -->
    <title>职业路径图标/web/选中</title>
    <desc>Created with Sketch.</desc>
    <defs>
        <rect id="path-1" x="0" y="0" width="53.3333333" height="53.3333333" rx="26.6666667"></rect>
        <linearGradient x1="50%" y1="100%" x2="50%" y2="0.534119898%" id="linearGradient-3">
            <stop stop-color="#FFFFFF" stop-opacity="0.8" offset="0%"></stop>
            <stop stop-color="#FFFFFF" stop-opacity="0" offset="100%"></stop>
        </linearGradient>
        <path d="M5.33333333,8 L8.59628479,1.47409708 C9.04799683,0.570673003 9.97136515,6.29634005e-16 10.981424,4.4408921e-16 L34.3519094,-1.77635684e-15 C35.3619682,-1.96190163e-15 36.2853365,0.570673003 36.7370485,1.47409708 L40,8 L48,8 C50.9455187,8 53.3333333,10.3878147 53.3333333,13.3333333 L53.3333333,48 C53.3333333,50.9455187 50.9455187,53.3333333 48,53.3333333 L5.33333333,53.3333333 C2.38781467,53.3333333 2.50858433e-15,50.9455187 -1.77635684e-15,48 L-8.8817842e-16,13.3333333 C-1.24890042e-15,10.3878147 2.38781467,8 5.33333333,8 Z" id="path-4"></path>
    </defs>
    <g id="职业路径图标/web/选中" stroke="none" stroke-width="1" fill="none" fill-rule="evenodd">
        <g id="Group-3" transform="translate(5.333333, 5.333333)">
            <mask id="mask-2" fill="white">
                <use xlink:href="#path-1"></use>
            </mask>
            <use id="Rectangle-2" fill-opacity="0.200000018" fill="#FF9900" xlink:href="#path-1"></use>
            <g id="Group-2" mask="url(#mask-2)">
                <g transform="translate(0.000000, 10.666667)">
                    <g id="Combined-Shape" fill="none">
                        <use fill="#FF7900" xlink:href="#path-4"></use>
                        <use fill="url(#linearGradient-3)" xlink:href="#path-4"></use>
                    </g>
                    <path d="M14.6666667,13.3333333 L30.6666667,13.3333333 C32.139426,13.3333333 33.3333333,14.5272407 33.3333333,16 C33.3333333,17.4727593 32.139426,18.6666667 30.6666667,18.6666667 L14.6666667,18.6666667 C13.1939073,18.6666667 12,17.4727593 12,16 C12,14.5272407 13.1939073,13.3333333 14.6666667,13.3333333 Z M20,21.3333333 L25.3333333,21.3333333 C26.8060927,21.3333333 28,22.5272407 28,24 C28,25.4727593 26.8060927,26.6666667 25.3333333,26.6666667 L20,26.6666667 C18.5272407,26.6666667 17.3333333,25.4727593 17.3333333,24 C17.3333333,22.5272407 18.5272407,21.3333333 20,21.3333333 Z M33.3333333,21.3333333 L49.3333333,21.3333333 C50.8060927,21.3333333 52,22.5272407 52,24 C52,25.4727593 50.8060927,26.6666667 49.3333333,26.6666667 L33.3333333,26.6666667 C31.860574,26.6666667 30.6666667,25.4727593 30.6666667,24 C30.6666667,22.5272407 31.860574,21.3333333 33.3333333,21.3333333 Z M26.6666667,29.3333333 L48,29.3333333 C49.4727593,29.3333333 50.6666667,30.5272407 50.6666667,32 C50.6666667,33.4727593 49.4727593,34.6666667 48,34.6666667 L26.6666667,34.6666667 C25.1939073,34.6666667 24,33.4727593 24,32 C24,30.5272407 25.1939073,29.3333333 26.6666667,29.3333333 Z M14.6666667,37.3333333 L20,37.3333333 C21.4727593,37.3333333 22.6666667,38.5272407 22.6666667,40 C22.6666667,41.4727593 21.4727593,42.6666667 20,42.6666667 L14.6666667,42.6666667 C13.1939073,42.6666667 12,41.4727593 12,40 C12,38.5272407 13.1939073,37.3333333 14.6666667,37.3333333 Z" id="Combined-Shape" fill="#FFFFFF" opacity="0.400000006"></path>
                    <path d="M24.3147573,0 L42.3519094,-1.77635684e-15 C43.3619682,-1.96190163e-15 44.2853365,0.570673003 44.7370485,1.47409708 L48,8 L18.6666667,8 L21.9296181,1.47409708 C22.3813302,0.570673003 23.3046985,1.07372322e-15 24.3147573,8.8817842e-16 Z" id="Rectangle-2-Copy" fill="#FF7900" opacity="0.400000006"></path>
                </g>
            </g>
        </g>
    </g>
</svg>