<?xml version="1.0" encoding="UTF-8"?>
<svg width="18px" height="18px" viewBox="0 0 18 18" version="1.1" xmlns="http://www.w3.org/2000/svg" xmlns:xlink="http://www.w3.org/1999/xlink">
    <!-- Generator: Sketch 50 (54983) - http://www.bohemiancoding.com/sketch -->
    <title>加入购物车</title>
    <desc>Created with Sketch.</desc>
    <defs></defs>
    <g id="路径" stroke="none" stroke-width="1" fill="none" fill-rule="evenodd">
        <g id="路径-立即购买" transform="translate(-236.000000, -634.000000)" fill="#FFFFFF" fill-rule="nonzero">
            <g id="继续学习" transform="translate(0.000000, 618.000000)">
                <path d="M250,19.5 L249,19.5 C248.723858,19.5 248.5,19.7238576 248.5,20 C248.5,20.2761424 248.723858,20.5 249,20.5 L250,20.5 L250,21.5 C250,21.7761424 250.223858,22 250.5,22 C250.776142,22 251,21.7761424 251,21.5 L251,20.5 L252,20.5 C252.276142,20.5 252.5,20.2761424 252.5,20 C252.5,19.7238576 252.276142,19.5 252,19.5 L251,19.5 L251,18.5 C251,18.2238576 250.776142,18 250.5,18 C250.223858,18 250,18.2238576 250,18.5 L250,19.5 Z M238.516703,20.1829823 C238.514571,20.1714511 238.512637,20.1598505 238.510904,20.1481841 L238.152873,18 L237,18 C236.447715,18 236,17.5522847 236,17 C236,16.4477153 236.447715,16 237,16 L239,16 C239.488839,16 239.906029,16.353413 239.986394,16.835601 L240.347127,19 L245,19 C245.552285,19 246,19.4477153 246,20 C246,20.5522847 245.552285,21 245,21 L240.68046,21 L241.847127,28 L249.245699,28 L250.038476,25.2252789 C250.1902,24.6942439 250.743686,24.3867518 251.274721,24.5384761 C251.805756,24.6902003 252.113248,25.2436861 251.961524,25.7747211 L250.961524,29.2747211 C250.838866,29.7040227 250.44648,30 250,30 L241,30 C240.511161,30 240.093971,29.646587 240.013606,29.164399 L238.516704,20.1829853 Z M250.5,23.5 C248.567003,23.5 247,21.9329966 247,20 C247,18.0670034 248.567003,16.5 250.5,16.5 C252.432997,16.5 254,18.0670034 254,20 C254,21.9329966 252.432997,23.5 250.5,23.5 Z M240.5,34 C239.671573,34 239,33.3284271 239,32.5 C239,31.6715729 239.671573,31 240.5,31 C241.328427,31 242,31.6715729 242,32.5 C242,33.3284271 241.328427,34 240.5,34 Z M250.5,34 C249.671573,34 249,33.3284271 249,32.5 C249,31.6715729 249.671573,31 250.5,31 C251.328427,31 252,31.6715729 252,32.5 C252,33.3284271 251.328427,34 250.5,34 Z" id="加入购物车"></path>
            </g>
        </g>
    </g>
</svg>