<?xml version="1.0" encoding="UTF-8"?>
<svg width="24px" height="24px" viewBox="0 0 24 24" version="1.1" xmlns="http://www.w3.org/2000/svg" xmlns:xlink="http://www.w3.org/1999/xlink">
    <!-- Generator: Sketch 50 (54983) - http://www.bohemiancoding.com/sketch -->
    <title>我的</title>
    <desc>Created with Sketch.</desc>
    <defs></defs>
    <g id="我的" stroke="none" stroke-width="1" fill="none" fill-rule="evenodd">
        <g>
            <rect id="Rectangle-12" x="0" y="0" width="24" height="24"></rect>
            <rect id="Rectangle-12" x="2" y="2" width="20" height="20"></rect>
            <path d="M2.94695083,17.971 C1.69795083,19.737 3.21895083,22 5.62395083,22 L18.3769508,22 C20.7819508,22 22.3009508,19.738 21.0539508,17.971 C19.3719508,15.589 16.1529508,14 12.0019508,14 C7.85495083,14 4.63095083,15.593 2.94695083,17.971 Z M19.4869508,19.078 C19.5999508,19.238 19.6109508,19.357 19.5279508,19.518 C19.3829508,19.799 18.9699508,20.082 18.3769508,20.082 L5.62395083,20.082 C5.02995083,20.082 4.61695083,19.798 4.47195083,19.517 C4.38895083,19.357 4.39995083,19.239 4.51295083,19.079 C5.91395083,17.1 8.71395083,15.918 12.0019508,15.918 C15.2919508,15.918 18.0899508,17.099 19.4869508,19.078 Z" id="Fill-1" fill="#B7BBBF"></path>
            <path d="M12,12 C14.209139,12 16,10.209139 16,8 C16,5.790861 14.209139,4 12,4 C9.790861,4 8,5.790861 8,8 C8,10.209139 9.790861,12 12,12 Z M12,14 C8.6862915,14 6,11.3137085 6,8 C6,4.6862915 8.6862915,2 12,2 C15.3137085,2 18,4.6862915 18,8 C18,11.3137085 15.3137085,14 12,14 Z" id="Oval" fill="#B7BBBF" fill-rule="nonzero"></path>
        </g>
    </g>
</svg>