<?xml version="1.0" encoding="UTF-8"?>
<svg width="16px" height="16px" viewBox="0 0 16 16" version="1.1" xmlns="http://www.w3.org/2000/svg" xmlns:xlink="http://www.w3.org/1999/xlink">
    <!-- Generator: Sketch 50 (54983) - http://www.bohemiancoding.com/sketch -->
    <title>close-小</title>
    <desc>Created with Sketch.</desc>
    <defs></defs>
    <g id="close-小" stroke="none" stroke-width="1" fill="none" fill-rule="evenodd">
        <g>
            <rect id="Rectangle-5" x="0" y="0" width="16" height="16"></rect>
            <path d="M2.14644661,2.85355339 L13.1464466,13.8535534 C13.3417088,14.0488155 13.6582912,14.0488155 13.8535534,13.8535534 C14.0488155,13.6582912 14.0488155,13.3417088 13.8535534,13.1464466 L2.85355339,2.14644661 C2.65829124,1.95118446 2.34170876,1.95118446 2.14644661,2.14644661 C1.95118446,2.34170876 1.95118446,2.65829124 2.14644661,2.85355339 Z" id="Path-5" fill="#71777D" fill-rule="nonzero"></path>
            <path d="M2.14644661,2.85355339 L13.1464466,13.8535534 C13.3417088,14.0488155 13.6582912,14.0488155 13.8535534,13.8535534 C14.0488155,13.6582912 14.0488155,13.3417088 13.8535534,13.1464466 L2.85355339,2.14644661 C2.65829124,1.95118446 2.34170876,1.95118446 2.14644661,2.14644661 C1.95118446,2.34170876 1.95118446,2.65829124 2.14644661,2.85355339 Z" id="Path-5" fill="#71777D" fill-rule="nonzero" transform="translate(8.000000, 8.000000) scale(-1, 1) translate(-8.000000, -8.000000) "></path>
        </g>
    </g>
</svg>