<?xml version="1.0" encoding="UTF-8"?>
<svg width="16px" height="16px" viewBox="0 0 16 16" version="1.1" xmlns="http://www.w3.org/2000/svg" xmlns:xlink="http://www.w3.org/1999/xlink">
    <!-- Generator: Sketch 50 (54983) - http://www.bohemiancoding.com/sketch -->
    <title>comment</title>
    <desc>Created with Sketch.</desc>
    <defs></defs>
    <g id="路径" stroke="none" stroke-width="1" fill="none" fill-rule="evenodd">
        <g id="收费课程-问答" transform="translate(-319.000000, -546.000000)" fill="#71777D">
            <g id="内容" transform="translate(0.000000, 64.000000)">
                <g id="回答1" transform="translate(20.000000, 394.000000)">
                    <path d="M313,88 C314.104571,88 315,88.8954286 315,90 L315,99.6668571 C315,100.771429 314.104571,101.666857 313,101.666857 L309.333143,101.666857 L307,104 L304.666857,101.666857 L301,101.666857 C299.895429,101.666857 299,100.771429 299,99.6668571 L299,90 C299,88.8954286 299.895429,88 301,88 L313,88 Z M313,89.7142857 L301,89.7142857 C300.842286,89.7142857 300.714286,89.8422857 300.714286,90 L300.714286,99.6668571 C300.714286,99.824 300.842286,99.9525714 301,99.9525714 L304.666857,99.9525714 L305.376571,99.9525714 L305.878857,100.454286 L307,101.575429 L308.121143,100.454286 L308.623429,99.9525714 L309.333143,99.9525714 L313,99.9525714 C313.157714,99.9525714 313.285714,99.824 313.285714,99.6668571 L313.285714,90 C313.285714,89.8422857 313.157714,89.7142857 313,89.7142857 Z M304.714286,94.8571429 C304.714286,95.4885714 304.202857,96 303.571429,96 C302.94,96 302.428571,95.4885714 302.428571,94.8571429 C302.428571,94.2257143 302.94,93.7142857 303.571429,93.7142857 C304.202857,93.7142857 304.714286,94.2257143 304.714286,94.8571429 Z M308.142857,94.8571429 C308.142857,95.4885714 307.631429,96 307,96 C306.368571,96 305.857143,95.4885714 305.857143,94.8571429 C305.857143,94.2257143 306.368571,93.7142857 307,93.7142857 C307.631429,93.7142857 308.142857,94.2257143 308.142857,94.8571429 Z M311.571429,94.8571429 C311.571429,95.4885714 311.06,96 310.428571,96 C309.797143,96 309.285714,95.4885714 309.285714,94.8571429 C309.285714,94.2257143 309.797143,93.7142857 310.428571,93.7142857 C311.06,93.7142857 311.571429,94.2257143 311.571429,94.8571429 Z" id="comment"></path>
                </g>
            </g>
        </g>
    </g>
</svg>