<?xml version="1.0" encoding="UTF-8"?>
<svg width="16px" height="16px" viewBox="0 0 16 16" version="1.1" xmlns="http://www.w3.org/2000/svg" xmlns:xlink="http://www.w3.org/1999/xlink">
    <!-- Generator: Sketch 50 (54983) - http://www.bohemiancoding.com/sketch -->
    <title>good</title>
    <desc>Created with Sketch.</desc>
    <defs></defs>
    <g id="路径" stroke="none" stroke-width="1" fill="none" fill-rule="evenodd">
        <g id="收费课程-问答" transform="translate(-271.000000, -546.000000)" fill="#F01414">
            <g id="内容" transform="translate(0.000000, 64.000000)">
                <g id="回答1" transform="translate(20.000000, 394.000000)">
                    <path d="M251,104 L253.284595,104 L253.284595,94.2857143 L251,94.2857143 L251,104 Z M260.138382,88 L254.998042,93.1428571 C254.686766,93.3828571 254.426893,93.8057143 254.426893,94.2857143 L254.426893,102.285714 C254.426893,103.165714 255.283617,104 256.14034,104 L262.994126,104 C263.61725,104 264.233519,103.445714 264.499675,103.04 C265.135935,102.071429 266.730582,97.3 266.992168,95.4285714 C267.096689,94.6822857 266.135445,93.7142857 265.278722,93.7142857 L260.709531,93.7142857 L261.306381,89.92 L261.306381,89.68 C261.306381,89.36 261.151029,89.04 260.995105,88.8 L260.138382,88 Z M259.3719,91.1908571 L259.016646,93.4474286 L258.705369,95.4285714 L260.709531,95.4285714 L265.191336,95.4285714 C265.209613,95.44 265.229603,95.4548571 265.249022,95.4714286 C264.904048,97.34 263.499593,101.427429 263.067804,102.098286 C263.03068,102.154857 262.939867,102.24 262.873043,102.285714 L256.204308,102.285714 C256.182034,102.270286 256.156332,102.245143 256.14034,102.222857 L256.14034,94.4245714 L256.209449,94.3548571 L259.3719,91.1908571 L259.3719,91.1908571 Z" id="good"></path>
                </g>
            </g>
        </g>
    </g>
</svg>