<?xml version="1.0" encoding="UTF-8"?>
<svg width="34px" height="36px" viewBox="0 0 34 36" version="1.1" xmlns="http://www.w3.org/2000/svg" xmlns:xlink="http://www.w3.org/1999/xlink">
    <!-- Generator: Sketch 50 (54983) - http://www.bohemiancoding.com/sketch -->
    <title>成功@1x</title>
    <desc>Created with Sketch.</desc>
    <defs></defs>
    <g id="路径" stroke="none" stroke-width="1" fill="none" fill-rule="evenodd">
        <g id="路径-分类一" transform="translate(-171.000000, -750.000000)" fill="#FFFFFF">
            <g id="内容" transform="translate(0.000000, 124.000000)">
                <g id="结果" transform="translate(0.000000, 602.000000)">
                    <g id="成功" transform="translate(171.000000, 24.000000)">
                        <path d="M32.4799037,14.3039307 C31.6151628,15.2366725 31.6151628,16.7628163 32.4799037,17.6955582 C33.3446447,18.6283 33.1058663,19.8257359 31.9509587,20.356896 C30.795165,20.8878345 30.2112877,22.2976901 30.6527397,23.490253 C31.0944133,24.6825943 30.4161764,25.6979561 29.1449806,25.7462434 C27.8746708,25.7949737 26.7952951,26.8743494 26.7470078,28.1446592 C26.6982775,29.4156335 25.6833587,30.0940919 24.4910173,29.6521969 C23.2980115,29.2107448 21.8881559,29.7946222 21.3572173,30.9504158 C20.8265003,32.105988 19.6288429,32.3436588 18.696101,31.4793609 C17.7631377,30.6152844 16.2372154,30.6152844 15.303809,31.4793609 C14.3710672,32.3436588 13.1736313,32.105988 12.6431357,30.9504158 C12.1121972,29.7946222 10.7014556,29.2107448 9.50933572,29.6521969 C8.31655136,30.0940919 7.30163253,29.4156335 7.25334525,28.1446592 C7.20461497,26.8743494 6.12568227,25.7949737 4.85448647,25.7462434 C3.58439817,25.6979561 2.90549677,24.6825943 3.34717031,23.490253 C3.78906535,22.2976901 3.20474499,20.8878345 2.04939435,20.356896 C0.893600707,19.8257359 0.65570834,18.6283 1.52000631,17.6955582 C2.38430427,16.7628163 2.38430427,15.2366725 1.52000631,14.3039307 C0.65570834,13.3711888 0.893600707,12.1737529 2.04939435,11.6428144 C3.20474499,11.1116543 3.78906535,9.70179872 3.34717031,8.50923587 C2.90549677,7.31667301 3.58439817,6.30153268 4.85448647,6.2530239 C6.12568227,6.20451512 7.20461497,5.12536092 7.25334525,3.85482962 C7.30163253,2.58407682 8.31655136,1.90539692 9.50933572,2.34729196 C10.7014556,2.78874399 12.1121972,2.20486664 12.6431357,1.0492945 C13.1736313,-0.10583464 14.3710672,-0.344613012 15.303809,0.519906456 C16.2372154,1.38420442 17.7631377,1.38420442 18.696101,0.519906456 C19.6288429,-0.344613012 20.8265003,-0.10583464 21.3572173,1.0492945 C21.8881559,2.20486664 23.2980115,2.78874399 24.4910173,2.34729196 C25.6833587,1.90539692 26.6982775,2.58407682 26.7470078,3.85482962 C26.7952951,5.12536092 27.8746708,6.20451512 29.1449806,6.2530239 C30.4161764,6.30153268 31.0944133,7.31667301 30.6527397,8.50923587 C30.2112877,9.70179872 30.795165,11.1116543 31.9509587,11.6428144 C33.1058663,12.1737529 33.3446447,13.3711888 32.4799037,14.3039307 Z M16.9998443,28.7411621 C24.0369397,28.7411621 29.741262,23.0366184 29.741262,15.9999659 C29.741262,8.96287047 24.0369397,3.25854819 16.9998443,3.25854819 C9.96341333,3.25854819 4.25864804,8.96287047 4.25864804,15.9999659 C4.25864804,23.0366184 9.96341333,28.7411621 16.9998443,28.7411621 Z M3,28 L8,31 L5,36 L3.5,33 L1.33226763e-15,33 L3,28 Z M31,28 L34,33 L30.5,33 L29,36 L26,31 L31,28 Z" id="Combined-Shape"></path>
                        <polygon id="Path-3" fill-rule="nonzero" points="21.9306106 10.9481415 24.0693894 13.0518585 15.1808782 22.0885116 9.98188684 17.2833832 12.0181132 15.0802531 15.0814169 17.9114884"></polygon>
                    </g>
                </g>
            </g>
        </g>
    </g>
</svg>