<?xml version="1.0" encoding="UTF-8"?>
<svg width="16px" height="16px" viewBox="0 0 16 16" version="1.1" xmlns="http://www.w3.org/2000/svg" xmlns:xlink="http://www.w3.org/1999/xlink">
    <!-- Generator: Sketch 50 (54983) - http://www.bohemiancoding.com/sketch -->
    <title>折扣</title>
    <desc>Created with Sketch.</desc>
    <defs></defs>
    <g id="路径" stroke="none" stroke-width="1" fill="none" fill-rule="evenodd">
        <g id="路径学习页-问号说明" transform="translate(-214.000000, -392.000000)">
            <g id="详情" transform="translate(32.000000, 187.000000)">
                <g id="Group-7" transform="translate(114.000000, 204.000000)">
                    <g id="折扣" transform="translate(68.000000, 1.000000)">
                        <g>
                            <path d="M3.19296,1.99136 L12.80736,1.99136 C13.46976,1.99136 14.00896,2.52896 14.00896,3.19296 L14.00896,12.80736 C14.00896,13.46976 13.46976,14.00896 12.80736,14.00896 L3.19296,14.00896 C2.52896,14.00896 1.99136,13.46976 1.99136,12.80736 L1.99136,3.19296 C1.99136,2.52896 2.52896,1.99136 3.19296,1.99136" id="Fill-1" fill="#FF5656"></path>
                            <path d="M8.84992,0.35232 L15.64832,7.15072 C16.11712,7.61952 16.11712,8.37952 15.64832,8.84992 L8.84992,15.64832 C8.37952,16.11712 7.61952,16.11712 7.15072,15.64832 L0.35232,8.84992 C-0.11648,8.37952 -0.11648,7.61952 0.35232,7.15072 L7.15072,0.35232 C7.61952,-0.11648 8.37952,-0.11648 8.84992,0.35232" id="Fill-3" fill="#FF5656"></path>
                            <path d="M5.59616,4.39456 C6.26016,4.39456 6.79776,4.93216 6.79776,5.59616 C6.79776,6.26016 6.26016,6.79776 5.59616,6.79776 C4.93216,6.79776 4.39456,6.26016 4.39456,5.59616 C4.39456,4.93216 4.93216,4.39456 5.59616,4.39456" id="Fill-5" fill="#FFBC00"></path>
                            <path d="M10.4032,9.2016 C11.0672,9.2016 11.6048,9.7392 11.6048,10.4032 C11.6048,11.0672 11.0672,11.6048 10.4032,11.6048 C9.7392,11.6048 9.2016,11.0672 9.2016,10.4032 C9.2016,9.7392 9.7392,9.2016 10.4032,9.2016" id="Fill-7" fill="#FFBC00"></path>
                            <polygon id="Fill-9" fill="#FFBC00" points="9.2016 5.59616 10.4032 5.59616 6.7984 10.40256 5.5968 10.40256"></polygon>
                        </g>
                    </g>
                </g>
            </g>
        </g>
    </g>
</svg>