<?xml version="1.0" encoding="UTF-8"?>
<svg width="12px" height="12px" viewBox="0 0 12 12" version="1.1" xmlns="http://www.w3.org/2000/svg" xmlns:xlink="http://www.w3.org/1999/xlink">
    <!-- Generator: Sketch 50 (54983) - http://www.bohemiancoding.com/sketch -->
    <title>问号</title>
    <desc>Created with Sketch.</desc>
    <defs></defs>
    <g id="路径" stroke="none" stroke-width="1" fill="none" fill-rule="evenodd">
        <g id="路径学习页" transform="translate(-335.000000, -124.000000)" fill="#B7BBBF">
            <g id="导航栏">
                <g id="数据">
                    <g transform="translate(20.000000, 116.000000)">
                        <path d="M320.408,17.606 L321.591,17.606 L321.591,16.395 L320.408,16.395 L320.408,17.606 Z M321,8 C324.324,8 327,10.676 327,14 C327,17.324 324.324,20 321,20 C317.676,20 315,17.324 315,14 C315,10.676 317.676,8 321,8 Z M321,18.816 C323.647,18.816 325.816,16.647 325.816,14 C325.816,11.353 323.647,9.184 321,9.184 C318.353,9.184 316.184,11.353 316.184,14 C316.184,16.647 318.353,18.816 321,18.816 Z M321,10.395 C322.324,10.395 323.395,11.465 323.395,12.789 C323.395,14.282 321.592,14.451 321.592,15.803 L320.409,15.803 C320.409,13.859 322.212,14 322.212,12.789 C322.212,12.141 321.648,11.606 321,11.606 C320.353,11.606 319.79,12.141 319.79,12.789 L318.606,12.789 C318.606,11.465 319.677,10.395 321.001,10.395 L321,10.395 Z" id="问号"></path>
                    </g>
                </g>
            </g>
        </g>
    </g>
</svg>